HIERARCHY
ROOT Hips
{
	OFFSET 0.00000 0.00000 0.00000
	CHANNELS 6 Xposition Yposition Zposition Zrotation Yrotation Xrotation 
	JOINT LHipJoint
	{
		OFFSET 0 0 0
		CHANNELS 3 Zrotation Yrotation Xrotation
		JOINT LeftHip
		{
			OFFSET 1.39187 -1.60231 0.69152
			CHANNELS 3 Zrotation Yrotation Xrotation
			JOINT LeftKnee
			{
				OFFSET 2.43314 -6.68499 0.00000
				CHANNELS 3 Zrotation Yrotation Xrotation
				JOINT LeftAnkle
				{
					OFFSET 2.32059 -6.37578 0.00000
					CHANNELS 3 Zrotation Yrotation Xrotation
					JOINT LeftToe
					{
						OFFSET 0.23021 -0.63250 1.71305
						CHANNELS 3 Zrotation Yrotation Xrotation
						End Site
						{
							OFFSET 0.00000 -0.00000 0.91647
						}
					}
				}
			}
		}
	}
	JOINT RHipJoint
	{
		OFFSET 0 0 0
		CHANNELS 3 Zrotation Yrotation Xrotation
		JOINT RightHip
		{
			OFFSET -1.19407 -1.60231 0.69152
			CHANNELS 3 Zrotation Yrotation Xrotation
			JOINT RightKnee
			{
				OFFSET -2.44411 -6.71513 0.00000
				CHANNELS 3 Zrotation Yrotation Xrotation
				JOINT RightAnkle
				{
					OFFSET -2.31924 -6.37207 0.00000
					CHANNELS 3 Zrotation Yrotation Xrotation
					JOINT RightToe
					{
						OFFSET -0.19473 -0.53502 1.87724
						CHANNELS 3 Zrotation Yrotation Xrotation
						End Site
						{
							OFFSET -0.00000 -0.00000 0.98293
						}
					}
				}
			}
		}
	}
	JOINT lowerback
	{
		OFFSET 0 0 0
		CHANNELS 3 Zrotation Yrotation Xrotation
		JOINT Chest
		{
			OFFSET -0.01120 1.87307 0.09613
			CHANNELS 3 Zrotation Yrotation Xrotation
			JOINT Chest2
			{
				OFFSET 0.01099 1.87818 0.04834
				CHANNELS 3 Zrotation Yrotation Xrotation
				JOINT lowerneck
				{
					OFFSET 0 0 0
					CHANNELS 3 Zrotation Yrotation Xrotation
					JOINT Neck
					{
						OFFSET 0.01702 1.40324 -0.12579
						CHANNELS 3 Zrotation Yrotation Xrotation
						JOINT Head
						{
							OFFSET -0.04239 1.38587 -0.01614
							CHANNELS 3 Zrotation Yrotation Xrotation
							End Site
							{
								OFFSET -0.02510 1.47031 -0.00154
							}
						}
					}
				}
				JOINT LeftCollar
				{
					OFFSET 0 0 0
					CHANNELS 3 Zrotation Yrotation Xrotation
					JOINT LeftShoulder
					{
						OFFSET 2.95699 0.62343 0.11653
CHANNELS 3 Zrotation Xrotation Yrotation
						JOINT LeftElbow
						{
OFFSET 0 -4.683820 -0.000000
CHANNELS 3 Zrotation Xrotation Yrotation
							JOINT LeftWrist
							{
OFFSET 0 -2.981240 -0.000000
CHANNELS 3 Zrotation Xrotation Yrotation
								JOINT lhand
								{
									OFFSET 0 0 0
CHANNELS 3 Zrotation Xrotation Yrotation
									JOINT LFingers
									{
OFFSET 0 -0.707590 0.000000
CHANNELS 3 Zrotation Xrotation Yrotation
										End Site
										{
OFFSET 0 -0.570480 0.000000
										}
									}
								}
								JOINT LThumb
								{
OFFSET 0 0.000000 0.000000
CHANNELS 3 Zrotation Xrotation Yrotation
									End Site
									{
OFFSET 0 -0.579190 0.579190
									}
								}
							}
						}
					}
				}
				JOINT RightCollar
				{
					OFFSET 0 0 0
					CHANNELS 3 Zrotation Yrotation Xrotation
					JOINT RightShoulder
					{
						OFFSET -2.99027 0.88714 -0.02793
CHANNELS 3 Zrotation Xrotation Yrotation
						JOINT RightElbow
						{
OFFSET 0 -4.758760 -0.000000
CHANNELS 3 Zrotation Xrotation Yrotation
							JOINT RightWrist
							{
OFFSET 0 -2.932930 -0.000000
CHANNELS 3 Zrotation Xrotation Yrotation
								JOINT rhand
								{
									OFFSET 0 0 0
CHANNELS 3 Zrotation Xrotation Yrotation
									JOINT RFingers
									{
OFFSET 0 -0.831750 0.000000
CHANNELS 3 Zrotation Xrotation Yrotation
										End Site
										{
OFFSET 0 -0.670580 0.000000
										}
									}
								}
								JOINT RThumb
								{
OFFSET 0 0.000000 0.000000
CHANNELS 3 Zrotation Xrotation Yrotation
									End Site
									{
OFFSET 0 -0.680820 0.680820
									}
								}
							}
						}
					}
				}
			}
		}
	}
}
MOTION
Frames: 6
Frame Time: 0.008333333333333333
9.453900 16.508500 3.020800 173.753000 65.083900 -170.784000 0.000000 0.000000 0.000000 -22.657200 -13.580100 -12.412400 1.600400 7.978800 22.649700 1.750800 3.414000 -26.415200 0.178900 2.724700 7.513300 0.000000 0.000000 0.000000 17.298300 12.915100 -27.183000 -2.788900 -10.345200 30.101900 -0.118400 -10.709600 -16.920000 -0.334000 3.714200 -10.273800 -5.793200 -0.007800 -13.467000 -0.495700 1.068400 -5.009400 2.914400 0.713800 2.178200 -3.438200 1.335400 5.597500 4.643300 1.763400 -3.598200 2.029500 0.807600 -2.202500 0.000000 0.000000 0.000000 -3.381200 -3.470100 20.407300 5.995600 -10.254800 0.538500 6.621200 63.006700 -23.324700 0.000000 0.000000 0.000000 -7.125000 0.000000 0.000000 -22.831200 51.973400 4.096600 0.000000 0.000000 0.000000 4.890900 -0.079900 -11.410700 -8.126300 -13.757400 -0.981900 -14.713700 35.394000 -12.138200 0.000000 0.000000 0.000000 7.125000 0.000000 -0.000000 8.696400 17.529700 5.740000
9.574966 16.513000 3.033744 173.764377 65.080758 -170.523277 0.000000 0.000000 0.000000 -22.466769 -14.389297 -11.937668 1.609234 7.999622 22.713030 1.689297 4.323509 -26.424450 0.253001 3.232724 8.927578 0.000000 0.000000 0.000000 17.593303 13.009805 -26.675497 -2.735430 -10.253895 29.802876 -0.176664 -10.841173 -17.827259 -0.342049 3.757664 -10.395980 -5.761552 -0.040884 -13.475866 -0.521669 1.030744 -5.202664 2.861513 0.710893 1.984792 -3.015214 1.342973 5.617961 4.186328 1.784791 -3.746428 1.802409 0.822709 -2.240430 0.000000 0.000000 0.000000 -3.522455 -3.031171 17.105095 6.338341 -10.825234 0.601232 6.394949 58.933766 -23.521154 0.000000 0.000000 0.000000 -7.125000 0.000000 0.000000 -23.153445 52.115692 4.243802 0.000000 0.000000 0.000000 4.866048 0.195610 -13.269855 -8.009728 -13.568525 -0.954393 -14.129095 37.078771 -11.912602 0.000000 0.000000 0.000000 7.125000 0.000000 0.000000 9.105732 17.797923 5.962608
9.706068 16.499857 3.049607 173.865903 64.970527 -170.231559 0.000000 0.000000 0.000000 -22.201372 -14.294559 -12.437284 1.765000 8.357638 23.806174 1.655323 4.591716 -26.320829 0.113389 2.168628 5.972033 0.000000 0.000000 0.000000 17.947994 13.093917 -26.225074 -2.706548 -10.204087 29.640088 -0.190947 -11.176169 -18.408198 -0.400928 4.064767 -11.259018 -5.815369 -0.113180 -13.787941 -0.467289 0.964721 -5.141220 2.945571 0.671063 2.221228 -3.223879 1.426948 5.616635 4.365368 1.902755 -4.117041 1.897275 0.878877 -2.375009 0.000000 0.000000 0.000000 -3.745073 -3.023843 15.385536 6.598269 -11.256101 0.651009 6.049583 56.747717 -23.576392 0.000000 0.000000 0.000000 -7.125000 0.000000 0.000000 -23.509492 52.108272 4.310258 0.000000 0.000000 0.000000 4.796060 0.488306 -13.692943 -8.214744 -13.900296 -1.003088 -13.970371 37.323133 -11.756374 0.000000 0.000000 0.000000 7.125000 0.000000 0.000000 9.218988 17.966487 6.003751
9.836470 16.476030 3.074788 174.751404 64.565693 -169.388412 0.000000 0.000000 0.000000 -21.477336 -13.660141 -13.653357 2.099071 9.068013 26.009411 1.757047 3.792252 -26.639403 0.026890 1.041987 2.864438 0.000000 0.000000 0.000000 18.700734 13.327831 -25.537071 -2.692829 -10.180358 29.562655 -0.232413 -11.539928 -19.326703 -0.339342 3.737798 -10.340740 -5.796343 -0.250792 -13.627326 -0.189264 0.756763 -5.187877 3.192246 0.573610 2.100379 -3.158247 1.494523 5.847106 4.179212 1.994207 -4.542583 1.823370 0.924511 -2.558818 0.000000 0.000000 0.000000 -3.857104 -2.502403 10.928331 6.963479 -11.859095 0.724121 5.470415 51.891282 -23.510509 0.000000 0.000000 0.000000 -7.125000 0.000000 0.000000 -24.017334 51.951160 4.316609 0.000000 0.000000 0.000000 4.252501 0.543493 -14.507907 -7.941933 -13.458671 -0.938570 -14.256464 37.530325 -12.152400 0.000000 0.000000 0.000000 7.125000 0.000000 0.000000 9.013844 17.546136 5.951414
9.963393 16.456196 3.096741 175.594010 63.864811 -168.566943 0.000000 0.000000 0.000000 -20.706887 -13.007404 -15.418027 2.585389 9.989628 28.944928 1.744412 3.364144 -26.346545 0.005840 -0.467678 -1.285143 0.000000 0.000000 0.000000 19.488384 13.179472 -25.023346 -2.668458 -10.137859 29.424373 -0.318281 -11.274903 -19.964442 -0.211198 2.958494 -8.163161 -5.467803 -0.273235 -13.374604 -0.150296 0.664238 -5.197883 3.030250 0.527613 1.967685 -3.406919 1.417709 5.648512 4.498016 1.906921 -4.809051 1.979841 0.878783 -2.618353 0.000000 0.000000 0.000000 -3.918120 -2.358598 8.404630 7.348066 -12.490543 0.805322 4.653550 49.360384 -23.561025 0.000000 0.000000 0.000000 -7.125000 0.000000 0.000000 -24.811333 51.860774 4.417602 0.000000 0.000000 0.000000 4.225441 1.275619 -12.764150 -8.504720 -14.367649 -1.073882 -13.986478 35.398478 -11.789284 0.000000 0.000000 0.000000 7.125000 0.000000 0.000000 9.206974 17.932145 6.003154
10.081359 16.436248 3.112943 177.615518 63.707441 -166.969982 0.000000 0.000000 0.000000 -19.423761 -12.285441 -17.246173 3.275022 11.126367 32.708579 1.731189 3.414442 -26.276418 0.029545 -1.096761 -3.015390 0.000000 0.000000 0.000000 20.977214 12.949247 -24.034937 -2.583585 -9.988327 28.938967 -0.385454 -10.650933 -19.994042 -0.126281 2.286551 -6.298424 -4.778626 -0.148549 -12.797248 0.235339 0.680847 -5.140905 3.039486 0.529219 1.719958 -3.045088 1.437011 5.772897 3.982562 1.944415 -5.389379 1.746019 0.903640 -2.821862 0.000000 0.000000 0.000000 -4.176903 -1.981570 5.026310 7.895799 -13.383787 0.927842 4.264715 45.584084 -23.051272 0.000000 0.000000 0.000000 -7.125000 0.000000 0.000000 -24.886490 51.335678 4.098641 0.000000 0.000000 0.000000 3.687967 1.717350 -11.493936 -8.696446 -14.675327 -1.121953 -14.415937 33.768033 -12.224804 0.000000 0.000000 0.000000 7.125000 0.000000 0.000000 8.902235 17.461844 5.892594
